<svg id="Layer_1" data-name="Layer 1" xmlns="http://www.w3.org/2000/svg" viewBox="0 0 123.53 2982.45"><defs><style>.cls-1{fill:#f2f2f4;}</style></defs><title>numbers_white</title><path class="cls-1" d="M1094.41-777.45v-2.35q34.26-7.89,53.87-30.14t22.07-54.43q-18.12,21.57-40.56,21.57-14.18,0-24.72-6.78a41.5,41.5,0,0,1-15.6-17.63q-5.06-10.85-5-25.39,0-26.76,16.09-42.91t39.88-16.15q24,0,38.9,17.38t14.86,50.06a137.65,137.65,0,0,1-2.72,27.68,99.61,99.61,0,0,1-10.23,27.18,105.75,105.75,0,0,1-19.91,25.89,115.49,115.49,0,0,1-28,19.91,97.07,97.07,0,0,1-30.76,10Zm11.34-123.17a60.74,60.74,0,0,0,3.76,21q3.77,10.3,11.53,15.91a30.31,30.31,0,0,0,18.24,5.61q14.55,0,23.43-9.81t8.87-29.28q0-20.22-8.75-33.1t-24-12.88q-14.67,0-23.86,10.85T1105.75-900.62Z" transform="translate(-1079.49 951.66)"/><path class="cls-1" d="M1119.43-554.26q-13.68-7.28-20.77-16.71t-7.09-22.87q0-18.85,13.93-32.36t38-13.5a59.43,59.43,0,0,1,22.63,4.25,34.52,34.52,0,0,1,16.09,12.7,33,33,0,0,1,5.67,18.8,36.76,36.76,0,0,1-6.66,20.78q-6.66,9.92-23.55,20.15v1.11Q1172.08-555,1179-550.2a36.74,36.74,0,0,1,11.41,13,39.15,39.15,0,0,1,4.44,18.93,52.36,52.36,0,0,1-8.45,28.17,55.62,55.62,0,0,1-22.25,20.52,62.27,62.27,0,0,1-28.61,7q-21.57,0-35.63-12.08t-14-32.18q0-16.27,9.68-28.05a66.42,66.42,0,0,1,23.85-18.3Zm10,4.44q-14.55,8.63-20.22,18.55a44.56,44.56,0,0,0-5.67,22.5q0,17.63,9.86,27.68t25.4,10A38,38,0,0,0,1158-476a31.35,31.35,0,0,0,12.89-13.5,41.45,41.45,0,0,0,4.25-18.67q0-14.55-10.17-22.69T1129.42-549.82Zm18.74-16.28q13.18-8.26,17.88-16.58a36,36,0,0,0,4.68-17.94q0-14.18-8.14-22.44t-21.82-8.26q-13.07,0-21.7,7.34t-8.63,20.52a27.71,27.71,0,0,0,5.61,17.33Q1121.65-578.8,1148.16-566.1Z" transform="translate(-1079.49 951.66)"/><path class="cls-1" d="M1094.65-154.28l-2.59-2.58q4.44-6.66,18.37-28.61l22.56-36,21.21-34.64,18.49-31.81q5.93-10.35,9.37-16.77l-1.23-1.23h-38.22q-14.43,0-25.64.49T1103.78-304a6.15,6.15,0,0,0-2.78,2.28q-.8,1.37-1.79,9.37L1097-275l-1.1,1h-5.18l-1.11-1,.61-33.78q0-5.79-.61-17.87l2.46-1.23q6.78.74,27.56,1.6t27.8.86q25,0,54.62-1.73l1,1v6.41l-17.75,31.44q-16.15,28.85-36.86,68.36t-30.21,64.67l-1.23,1c-4.69-.41-8.22-.61-10.61-.61A115.65,115.65,0,0,0,1094.65-154.28Z" transform="translate(-1079.49 951.66)"/><path class="cls-1" d="M1184.53-14.18v1.48Q1171.09-9.87,1153.89.74A92.35,92.35,0,0,0,1125,29.22q-11.71,17.87-13.56,43.15,4.18-3,9.62-7.15,7-5.31,10.29-7.28a35,35,0,0,1,8.75-3.45A48.58,48.58,0,0,1,1152.72,53a46.2,46.2,0,0,1,22.81,5.61,35.32,35.32,0,0,1,15.16,16.52q5.05,10.9,5.06,25.46,0,20.6-10,34.46t-21.2,19.85a54,54,0,0,1-25.77,6q-24.78,0-38.47-18.56t-13.68-48.26a125.49,125.49,0,0,1,5.73-37.92,101.35,101.35,0,0,1,17.45-32.91A118.07,118.07,0,0,1,1139.71-3q18.19-11.47,35.82-15.54Zm-75.45,117.61a85.4,85.4,0,0,0,3.51,24.17q3.51,12,11.28,18.49a27.45,27.45,0,0,0,18.25,6.54,29.58,29.58,0,0,0,16.64-5.06q7.65-5.06,11.65-15.84a64.81,64.81,0,0,0,4-22.75,55,55,0,0,0-4-21.39A32.8,32.8,0,0,0,1159,72.92a29.9,29.9,0,0,0-17.51-5.24,33.64,33.64,0,0,0-14.79,3.58,35.52,35.52,0,0,0-11.41,8.13,21.62,21.62,0,0,0-5.11,9.68A71.57,71.57,0,0,0,1109.08,103.43Z" transform="translate(-1079.49 951.66)"/><path class="cls-1" d="M1094.16,466.19q-3-9.62-12.21-31.81l.25-1.6,4.32-2.47,1.47.37q10.24,18.61,12.77,21.15t11.52,5.91a53.2,53.2,0,0,0,19,3.39,44.1,44.1,0,0,0,22.07-5.42,33.31,33.31,0,0,0,14.3-16,59,59,0,0,0,4.68-24q0-13.18-4.62-22.75a31.34,31.34,0,0,0-14.12-14.48,43.71,43.71,0,0,0-20.46-4.93,39.63,39.63,0,0,0-12.52,1.85,31.28,31.28,0,0,0-9.37,4.74,74.49,74.49,0,0,0-8.93,8.57l-5.06-1.48,1.36-26.51q.5-7.51.49-15.16V323.54q0-9.85-.62-18.86c-.24-3.7-.37-6-.37-7l1.61-1.23q18.86,1.49,43,1.48,18.38,0,44-1.48l.49,1.23a80.51,80.51,0,0,0-.86,11.22q0,2.6.37,8.63l-1.23.74q-14.05-1-37.73-1-32.18,0-37.36.24-1.85,14.55-2.59,51.29,10.11-7.4,18.25-10.05a58.09,58.09,0,0,1,43.4,3.52,40.7,40.7,0,0,1,18.43,17.87,53.9,53.9,0,0,1,6.1,25.28q0,25-20.65,46t-52.83,21A57.43,57.43,0,0,1,1106.3,471,62.07,62.07,0,0,1,1094.16,466.19Z" transform="translate(-1079.49 951.66)"/><path class="cls-1" d="M1118.57,780.49l-1-1v-5.3l1-1q18.24-.5,21.64-1.11a8,8,0,0,0,5-2.59q1.6-2,2.41-9.62a157.56,157.56,0,0,0,.8-16.27V734.5h-27q-23.55,0-39.83.74l-2.09-6.65q21.45-40.2,71.63-116.39l17.38-7,3.09,1.48q-1.36,21-1.36,51.91l-.37,34.77v25.52q17-.14,26.26-.74l1.11,1.23q-.26,4.68-.25,6.78c.08,2.71.21,5.38.37,8l-1.23,1.11q-12-.74-20-.74h-6.29v8.26a178.23,178.23,0,0,0,.74,19.61q.74,5.79,2.34,7.46c1.07,1.1,3.23,1.93,6.47,2.46a126,126,0,0,0,16.83.93l1.11,1v5.3l-1,1q-21.7-1-36.37-1Q1136.07,779.5,1118.57,780.49Zm-22.81-61.64h52.65l1.11-87.66q-11.83,16.89-29.84,46.35T1095.76,718.85Z" transform="translate(-1079.49 951.66)"/><path class="cls-1" d="M1090.83,1088.26a271.94,271.94,0,0,0-8.26-35l.62-1.85,4.56-1.72,1.73.86a94.23,94.23,0,0,0,9.24,18.74,31.26,31.26,0,0,0,14.18,11.34,50.34,50.34,0,0,0,20,4q13.56,0,21.52-5.67a36.64,36.64,0,0,0,12.26-15.42,53.53,53.53,0,0,0,4.32-21.94q0-16.4-8.57-25.77t-23.73-9.37a39.27,39.27,0,0,0-9.25,1,102.07,102.07,0,0,0-12.57,4.44l-1.36-1.24,2.71-13.43q10,.61,13.32.61,14.42,0,22.87-10.23a36.79,36.79,0,0,0,8.44-24.17A26.94,26.94,0,0,0,1154,942.9q-8.82-8.26-21.76-8.26a38.39,38.39,0,0,0-16.09,3.45,42.31,42.31,0,0,0-12.52,8.38q-2.1,4.2-6.65,16.53l-1.24,1.1h-5.54l-1-1.1,7.4-28.61Q1112,917,1138.42,917q20.1,0,32.49,10.66a33.9,33.9,0,0,1,12.39,26.82,38.34,38.34,0,0,1-7.28,22.62q-7.27,10.29-20.21,19.42,21.32,2.6,30,12.76t8.7,24.6q0,23.67-21.46,42.59t-49.56,18.93a72,72,0,0,1-32.67-7.15Z" transform="translate(-1079.49 951.66)"/><path class="cls-1" d="M1083.68,1403.91l-1.48-1.23V1397l41.3-43.77q25.53-27,33-41.79t7.52-27.62q0-15-9.12-25t-24.66-10a45.08,45.08,0,0,0-17.38,3.08q-7.39,3.09-9.92,6.9t-7.34,21.46l-1.11,1h-5l-1.24-1.11a329.52,329.52,0,0,0,4-32.91q11.58-11.35,21.63-14.49a69.9,69.9,0,0,1,21-3.14,64.94,64.94,0,0,1,25,4.93,41.61,41.61,0,0,1,19.24,16,45.5,45.5,0,0,1,7.27,25.58,59.7,59.7,0,0,1-4.25,21.77,79.93,79.93,0,0,1-12.46,21.08,318.58,318.58,0,0,1-22.37,24.35l-38.47,39.2h48.7a359.84,359.84,0,0,0,37.36-1.6l.86,1a65.8,65.8,0,0,0-.74,11,50.59,50.59,0,0,0,.74,9.74l-.86,1.35q-8.88-.48-27.25-.86t-24.29-.37q-12,0-32.18.31T1083.68,1403.91Z" transform="translate(-1079.49 951.66)"/><path class="cls-1" d="M1096.87,1575l-2.22-.74-1.23-10.11,1.23-1.23a303,303,0,0,0,31.2-11.46q18.86-7.89,27-12.09l3.2,1.24q-2,54-2,64.85v45.74q0,16.89.37,31.74t1.11,17.51a7.89,7.89,0,0,0,2.53,4.13,9.69,9.69,0,0,0,5,1.91q3.21.43,19.11,1.3l.86,1v5.55l-.86,1q-27-1-38.1-1-8.38,0-41,1l-.87-1v-5.55l1-1q18.49-1.37,21.14-2a7.69,7.69,0,0,0,4.07-2.16q1.43-1.53,2.28-5.85t1.42-25.52q.56-21.21.56-21.7V1602q0-35.75-.19-38.83c-.12-2.06-.84-3.08-2.16-3.08a5.33,5.33,0,0,0-1.35.24q-.87.26-5.43,2.22l-12.2,5.43Q1103.65,1571.26,1096.87,1575Z" transform="translate(-1079.49 951.66)"/><path class="cls-1" d="M1085.65,1950.53a317.39,317.39,0,0,1,2.22-39.51,86.82,86.82,0,0,1,9.8-31.32q7.59-13.74,19-20.59a49.45,49.45,0,0,1,25.95-6.84q16.53,0,29,8.51t18,26.13q5.47,17.64,5.48,48,0,49.32-15.1,72.62t-41.86,23.3a47.59,47.59,0,0,1-23.73-5.79,46,46,0,0,1-16.89-16.77,75.52,75.52,0,0,1-9.25-25.89A182.55,182.55,0,0,1,1085.65,1950.53Zm21.21-7.15a238.47,238.47,0,0,0,3.51,42.66q3.53,19.23,11.72,27.67a26.24,26.24,0,0,0,19.54,8.45,24.53,24.53,0,0,0,18.3-7.52q7.33-7.52,10.73-25.77t3.39-45.12q0-42.16-8-62.39t-26.51-20.21q-16.15,0-24.41,15.65T1106.86,1943.38Z" transform="translate(-1079.49 951.66)"/></svg>