<svg id="Layer_1" data-name="Layer 1" xmlns="http://www.w3.org/2000/svg" viewBox="0 0 123.53 2982.45"><defs><style>.cls-1{fill:#10112f;}</style></defs><title>numbers_black</title><path class="cls-1" d="M1481.11,136.18v-2.34q34.28-7.89,53.87-30.15t22.07-54.43q-18.12,21.59-40.56,21.58-14.17,0-24.72-6.78a41.56,41.56,0,0,1-15.6-17.63q-5.06-10.86-5.05-25.4,0-26.76,16.09-42.91T1527.09-38q24,0,38.9,17.39t14.86,50.05a137.58,137.58,0,0,1-2.72,27.68,99.23,99.23,0,0,1-10.23,27.19A106.13,106.13,0,0,1,1548,110.17a115.76,115.76,0,0,1-28,19.91,97,97,0,0,1-30.76,10ZM1492.45,13a60.78,60.78,0,0,0,3.76,21,32.91,32.91,0,0,0,11.53,15.9A30.33,30.33,0,0,0,1526,55.55q14.55,0,23.43-9.8t8.88-29.28q0-20.22-8.76-33.11t-24-12.88q-14.67,0-23.86,10.85T1492.45,13Z" transform="translate(-1466.19 38.03)"/><path class="cls-1" d="M1506.13,359.37q-13.68-7.28-20.77-16.71t-7.09-22.87q0-18.85,13.93-32.36t38-13.5a59.43,59.43,0,0,1,22.63,4.25,34.52,34.52,0,0,1,16.09,12.7,33,33,0,0,1,5.67,18.8,36.74,36.74,0,0,1-6.66,20.78q-6.66,9.93-23.55,20.16v1.11q14.43,6.9,21.39,11.71a36.57,36.57,0,0,1,11.41,13,39.09,39.09,0,0,1,4.44,18.92,52.36,52.36,0,0,1-8.45,28.17,55.71,55.71,0,0,1-22.25,20.53,62.39,62.39,0,0,1-28.6,7q-21.58,0-35.64-12.09t-14.05-32.17q0-16.27,9.68-28a66.44,66.44,0,0,1,23.85-18.31Zm10,4.44q-14.55,8.63-20.22,18.55a44.56,44.56,0,0,0-5.67,22.5q0,17.64,9.86,27.68t25.4,10a38,38,0,0,0,19.23-4.93,31.4,31.4,0,0,0,12.89-13.5,41.49,41.49,0,0,0,4.25-18.68q0-14.55-10.17-22.69T1516.12,363.81Zm18.74-16.28q13.19-8.25,17.88-16.58a36,36,0,0,0,4.68-17.94q0-14.17-8.13-22.43t-21.83-8.27q-13.07,0-21.7,7.34t-8.63,20.53a27.68,27.68,0,0,0,5.61,17.32Q1508.35,334.84,1534.86,347.53Z" transform="translate(-1466.19 38.03)"/><path class="cls-1" d="M1481.35,759.36l-2.59-2.59q4.44-6.66,18.37-28.6l22.57-36,21.2-34.65,18.49-31.81q5.92-10.35,9.37-16.76l-1.23-1.24h-38.22q-14.41,0-25.64.5t-13.19,1.41a6.1,6.1,0,0,0-2.78,2.29c-.53.9-1.13,4-1.78,9.37l-2.22,17.38-1.11,1h-5.18l-1.11-1,.62-33.78q0-5.79-.62-17.88l2.46-1.23q6.78.74,27.56,1.6t27.8.86q25,0,54.62-1.72l1,1v6.42L1572,625.34q-16.15,28.86-36.86,68.37t-30.21,64.66l-1.23,1q-7-.61-10.6-.62A115.77,115.77,0,0,0,1481.35,759.36Z" transform="translate(-1466.19 38.03)"/><path class="cls-1" d="M1571.23,899.45v1.48q-13.44,2.84-30.64,13.44a92.35,92.35,0,0,0-28.91,28.48Q1500,960.73,1498.12,986q4.19-3,9.62-7.15,7-5.29,10.29-7.27a34.58,34.58,0,0,1,8.76-3.46,48.88,48.88,0,0,1,12.63-1.48,46.2,46.2,0,0,1,22.81,5.61,35.32,35.32,0,0,1,15.16,16.52q5.05,10.92,5.06,25.46,0,20.6-10,34.46t-21.2,19.85q-11.22,6-25.77,6-24.78,0-38.47-18.55t-13.68-48.27a125.38,125.38,0,0,1,5.73-37.91,101.4,101.4,0,0,1,17.45-32.92,118.32,118.32,0,0,1,29.9-26.2q18.18-11.46,35.81-15.53Zm-75.45,117.62a85.34,85.34,0,0,0,3.51,24.16q3.51,12,11.28,18.5a27.49,27.49,0,0,0,18.25,6.53,29.54,29.54,0,0,0,16.64-5q7.65-5.06,11.65-15.85a64.79,64.79,0,0,0,4-22.74,55,55,0,0,0-3.95-21.39,32.82,32.82,0,0,0-11.46-14.68,29.87,29.87,0,0,0-17.51-5.23,33.76,33.76,0,0,0-14.79,3.57A35.69,35.69,0,0,0,1502,993a21.57,21.57,0,0,0-5.11,9.68A71.5,71.5,0,0,0,1495.78,1017.07Z" transform="translate(-1466.19 38.03)"/><path class="cls-1" d="M1480.86,1379.82q-3-9.61-12.21-31.81l.25-1.6,4.32-2.46,1.48.37q10.23,18.62,12.76,21.14t11.52,5.92a53.42,53.42,0,0,0,19,3.39,44.11,44.11,0,0,0,22.07-5.43,33.28,33.28,0,0,0,14.3-16,59,59,0,0,0,4.68-24q0-13.18-4.62-22.74a31.34,31.34,0,0,0-14.11-14.49,43.75,43.75,0,0,0-20.47-4.93,39.81,39.81,0,0,0-12.51,1.85,31,31,0,0,0-9.37,4.75,73.51,73.51,0,0,0-8.94,8.56l-5.06-1.48,1.36-26.5q.5-7.51.49-15.17v-21.94q0-9.87-.62-18.87c-.24-3.69-.37-6-.37-7l1.61-1.24q18.85,1.48,43,1.48,18.36,0,44-1.48l.49,1.24a80.4,80.4,0,0,0-.86,11.22q0,2.58.37,8.63l-1.23.74q-14.06-1-37.73-1-32.17,0-37.36.25-1.85,14.55-2.59,51.28,10.11-7.39,18.25-10a58.14,58.14,0,0,1,43.4,3.51,40.67,40.67,0,0,1,18.43,17.88,53.86,53.86,0,0,1,6.1,25.27q0,25-20.65,46t-52.83,21a57,57,0,0,1-14.24-1.48A62.07,62.07,0,0,1,1480.86,1379.82Z" transform="translate(-1466.19 38.03)"/><path class="cls-1" d="M1505.27,1694.12l-1-1v-5.3l1-1q18.26-.49,21.64-1.11a8,8,0,0,0,5-2.59q1.61-2,2.41-9.62a157.42,157.42,0,0,0,.8-16.27v-9.12h-27q-23.55,0-39.82.74l-2.1-6.66q21.45-40.2,71.63-116.39l17.38-7,3.09,1.48q-1.36,21-1.36,51.9l-.37,34.77v25.52q17-.12,26.26-.74l1.11,1.23q-.26,4.69-.25,6.78c.08,2.72.21,5.39.37,8l-1.23,1.11q-12-.75-20-.74h-6.29v8.26a178,178,0,0,0,.74,19.6q.73,5.79,2.34,7.46t6.48,2.46a125.71,125.71,0,0,0,16.82.93l1.11,1v5.3l-1,1q-21.71-1-36.37-1Q1522.78,1693.14,1505.27,1694.12Zm-22.81-61.64h52.65l1.11-87.66q-11.84,16.89-29.84,46.36T1482.46,1632.48Z" transform="translate(-1466.19 38.03)"/><path class="cls-1" d="M1477.53,2001.89a271.46,271.46,0,0,0-8.26-35l.62-1.85,4.56-1.73,1.73.86a94,94,0,0,0,9.24,18.74,31.28,31.28,0,0,0,14.18,11.35,50.37,50.37,0,0,0,20,3.94q13.56,0,21.52-5.67a36.67,36.67,0,0,0,12.26-15.41,53.58,53.58,0,0,0,4.32-21.95q0-16.4-8.57-25.76t-23.73-9.37a39.84,39.84,0,0,0-9.25,1,102.07,102.07,0,0,0-12.57,4.44l-1.36-1.23,2.71-13.44q10,.62,13.32.62,14.41,0,22.87-10.24a36.76,36.76,0,0,0,8.44-24.16,27,27,0,0,0-8.81-20.47q-8.82-8.25-21.76-8.26a38.39,38.39,0,0,0-16.09,3.45,42.33,42.33,0,0,0-12.52,8.39q-2.08,4.19-6.65,16.52l-1.24,1.11h-5.54l-1-1.11,7.4-28.6q15.4-17.38,41.79-17.39,20.1,0,32.49,10.67a33.89,33.89,0,0,1,12.39,26.81,38.39,38.39,0,0,1-7.28,22.63q-7.28,10.29-20.21,19.41,21.32,2.6,30,12.76t8.69,24.6q0,23.67-21.45,42.6T1510.2,2009a72,72,0,0,1-32.67-7.15Z" transform="translate(-1466.19 38.03)"/><path class="cls-1" d="M1470.38,2317.55l-1.48-1.23v-5.68l41.3-43.76q25.53-27,33-41.8t7.52-27.61q0-15-9.13-25t-24.66-10a45.08,45.08,0,0,0-17.38,3.08q-7.39,3.09-9.92,6.91t-7.34,21.45l-1.11,1h-5l-1.24-1.11a329.71,329.71,0,0,0,4-32.92q11.58-11.34,21.64-14.49a70.1,70.1,0,0,1,21-3.14,64.94,64.94,0,0,1,25,4.93,41.63,41.63,0,0,1,19.24,16q7.28,11,7.27,25.58a59.69,59.69,0,0,1-4.25,21.76,79.93,79.93,0,0,1-12.46,21.08,318.58,318.58,0,0,1-22.37,24.35l-38.47,39.21h48.7a359.48,359.48,0,0,0,37.36-1.61l.86,1a65.8,65.8,0,0,0-.74,11,50.59,50.59,0,0,0,.74,9.74l-.86,1.36q-8.88-.5-27.25-.87t-24.29-.36q-12,0-32.18.3T1470.38,2317.55Z" transform="translate(-1466.19 38.03)"/><path class="cls-1" d="M1483.57,2488.59l-2.22-.74-1.23-10.11,1.23-1.23a305.86,305.86,0,0,0,31.2-11.47q18.85-7.89,27-12.08l3.2,1.23q-2,54-2,64.85v45.74q0,16.89.37,31.75t1.11,17.5a7.86,7.86,0,0,0,2.53,4.13,9.61,9.61,0,0,0,5,1.91q3.21.43,19.11,1.3l.86,1v5.54l-.86,1q-27-1-38.1-1-8.38,0-41,1l-.87-1v-5.54l1-1q18.5-1.35,21.14-2a7.69,7.69,0,0,0,4.07-2.16q1.42-1.54,2.28-5.86t1.42-25.52q.56-21.2.56-21.7v-48.57q0-35.76-.19-38.84c-.12-2.05-.84-3.08-2.16-3.08a5.07,5.07,0,0,0-1.35.25q-.87.24-5.43,2.22l-12.2,5.42Q1490.35,2484.89,1483.57,2488.59Z" transform="translate(-1466.19 38.03)"/><path class="cls-1" d="M1472.35,2864.16a317.39,317.39,0,0,1,2.22-39.51,86.88,86.88,0,0,1,9.8-31.32q7.59-13.74,19-20.58a49.36,49.36,0,0,1,26-6.85q16.53,0,29,8.51t18,26.14q5.48,17.63,5.48,48,0,49.3-15.1,72.61t-41.86,23.3a47.59,47.59,0,0,1-23.73-5.79,45.85,45.85,0,0,1-16.89-16.77A75.37,75.37,0,0,1,1475,2896,182.47,182.47,0,0,1,1472.35,2864.16Zm21.21-7.15a238.39,238.39,0,0,0,3.51,42.66q3.53,19.23,11.72,27.68a26.27,26.27,0,0,0,19.54,8.44,24.49,24.49,0,0,0,18.3-7.52q7.33-7.51,10.73-25.76t3.39-45.13q0-42.16-8-62.38t-26.51-20.22q-16.15,0-24.41,15.66T1493.56,2857Z" transform="translate(-1466.19 38.03)"/></svg>